# xmcd
#
# Track frame offsets:
#	150
#	13405
#	28423
#	41397
#	57617
#	69694
#	83858
#	93683
#	105643
#	119478
#	139883
#	153709
#
# Disc length: 2233 seconds
#
# Revision: 1
# Processed by: cddbd v1.5.1PL2 Copyright (c) Steve Scherf et al.
# Submitted via: audiograbber 1.83.01
#
DISCID=b508b70c
DTITLE=Diverse - Squeezing Art und Tender Flutes
DYEAR=1900
DGENRE=
TTITLE0=Cheers
TTITLE1=Deep night
TTITLE2=Hot Action
TTITLE3=Viniette
TTITLE4=Patou
TTITLE5=I Only Have Eyes For You
TTITLE6=Pick Yourself Up
TTITLE7=Paco
TTITLE8=Your Turn
TTITLE9=How Will I Forget
TTITLE10=A Foggy Day
TTITLE11=Best Things For You
EXTD=Schallplatte
EXTT0=
EXTT1=
EXTT2=
EXTT3=
EXTT4=
EXTT5=
EXTT6=
EXTT7=
EXTT8=
EXTT9=
EXTT10=
EXTT11=
PLAYORDER=
